<?xml version="1.0" encoding="UTF-8" standalone="no"?>
<!-- Created with Inkscape (http://www.inkscape.org/) -->

<svg
   version="1.1"
   id="svg1"
   width="417.86667"
   height="92.800003"
   viewBox="0 0 417.86667 92.800003"
   sodipodi:docname="logo.svg"
   inkscape:version="1.3 (0e150ed6c4, 2023-07-21)"
   xmlns:inkscape="http://www.inkscape.org/namespaces/inkscape"
   xmlns:sodipodi="http://sodipodi.sourceforge.net/DTD/sodipodi-0.dtd"
   xmlns="http://www.w3.org/2000/svg"
   xmlns:svg="http://www.w3.org/2000/svg">
  <defs
     id="defs1" />
  <sodipodi:namedview
     id="namedview1"
     pagecolor="#ffffff"
     bordercolor="#999999"
     borderopacity="1"
     inkscape:showpageshadow="2"
     inkscape:pageopacity="0"
     inkscape:pagecheckerboard="0"
     inkscape:deskcolor="#d1d1d1"
     inkscape:zoom="4.0634971"
     inkscape:cx="208.93333"
     inkscape:cy="105.69713"
     inkscape:window-width="2560"
     inkscape:window-height="1494"
     inkscape:window-x="-11"
     inkscape:window-y="-11"
     inkscape:window-maximized="1"
     inkscape:current-layer="g1" />
  <g
     inkscape:groupmode="layer"
     inkscape:label="Image"
     id="g1">
    <path
       style="fill:#000000"
       d="M 22.722244,92.26621 C 14.995026,91.17781 6.114907,86.767968 2.7351934,82.340701 0.48900418,79.398299 -0.12446185,77.112554 0.04027581,72.299571 0.12588415,69.798434 0.22230417,69.297748 0.77317392,68.493806 2.5247329,65.937573 9.5793696,62.400002 12.92546,62.400002 c 1.36718,0 2.541207,0.802865 2.541207,1.737818 0,0.896333 -0.854052,1.773292 -3.575807,3.67172 -1.306694,0.911421 -2.7466944,2.118657 -3.2000005,2.682746 -0.7506611,0.934116 -0.8236646,1.195818 -0.818272,2.933334 0.00824,2.655092 0.8889871,4.482223 3.3042545,6.854757 2.167823,2.129468 5.891747,4.123532 9.756491,5.224345 3.204471,0.912745 8.940433,1.16588 11.70586,0.516595 4.457397,-1.046537 7.617875,-3.938739 7.625987,-6.978658 0.0034,-1.28242 -1.15465,-4.916078 -2.392988,-7.508426 -1.761695,-3.687949 -4.215833,-7.807958 -9.729704,-16.334231 -6.434235,-9.949463 -7.928997,-12.6037 -9.340923,-16.586605 -0.611377,-1.724633 -0.708874,-2.364855 -0.609147,-4 0.215579,-3.534675 2.168586,-7.203176 4.925386,-9.251775 4.47329,-3.324135 12.427217,-6.022583 21.41553,-7.265427 1.442931,-0.199519 4.828916,-0.343381 7.866666,-0.334235 7.313415,0.02202 11.058821,0.843321 15.247361,3.343477 1.98039,1.182103 4.594383,3.812456 5.396653,5.430428 0.753006,1.518619 1.015866,3.538177 0.569159,4.372856 -0.47577,0.888984 -1.879215,1.622498 -3.106496,1.623617 -1.446992,0.0013 -2.877791,-1.043975 -4.402383,-3.216235 -2.861882,-4.077647 -5.370728,-4.78699 -16.897298,-4.777487 -6.707717,0.0055 -9.059038,0.21382 -11.731241,1.039199 -5.80436,1.792828 -9.825363,4.641469 -10.82434,7.6684 -0.170603,0.516931 -0.257048,1.678005 -0.1921,2.580164 0.239408,3.325526 2.52418,7.837434 9.670964,19.097972 5.452361,8.590789 6.9215,11.10287 9.046314,15.468287 2.226109,4.573529 2.918807,7.109806 2.773257,10.154123 -0.128717,2.692228 -0.705775,3.898172 -2.979939,6.227512 -2.584264,2.646964 -5.729761,4.319627 -9.636577,5.124387 -2.248516,0.46317 -10.272051,0.69702 -12.61109,0.36755 z M 61.937923,88.518808 C 59.175996,87.973735 57.609495,86.513587 57.395318,84.28461 57.117169,81.389853 58.904969,78.329655 63.559484,73.733336 69.555333,67.812453 77.994197,62.12539 82.915067,60.68935 c 3.189072,-0.930655 5.880488,-0.369479 6.80532,1.41895 1.042538,2.016045 0.259847,3.308836 -4.450624,7.351205 -4.278617,3.671767 -5.209412,4.140497 -8.222121,4.140497 -3.753822,0 -3.781586,0.01269 -6.942575,3.172652 -3.099501,3.098495 -4.396213,4.83146 -4.131457,5.521402 0.143099,0.372909 0.485855,0.421371 2.231065,0.315448 3.414028,-0.207209 10.915793,-2.97494 18.995325,-7.00821 3.738592,-1.86629 5.805524,-2.591567 7.087054,-2.486815 0.961644,0.0786 1.052976,0.154783 1.129061,0.941719 0.07567,0.782606 -0.0724,0.970147 -1.722724,2.181992 -3.773384,2.770822 -14.526699,8.911714 -18.992181,10.845859 -3.46411,1.500418 -9.176675,2.142585 -12.763287,1.434759 z M 299.6,87.629611 c -1.81248,-0.44184 -4.46514,-1.896445 -5.77297,-3.165653 -1.64765,-1.598985 -2.18018,-3.04352 -2.31049,-6.267349 -0.0977,-2.416868 -0.0259,-3.008541 0.61449,-5.062393 2.23857,-7.179855 8.45519,-15.662743 14.19875,-19.374883 3.11151,-2.011008 4.48735,-2.554121 6.47022,-2.554121 1.90722,0 4.30909,0.892441 4.62624,1.718936 0.51581,1.344171 -0.2049,6.971821 -1.08608,8.480598 -1.38504,2.37153 -3.82512,2.678651 -6.52498,0.821269 -0.9098,-0.625898 -1.02926,-0.64639 -1.56809,-0.268981 -0.73634,0.51575 -3.27051,3.364505 -4.57304,5.140711 -2.15267,2.935519 -3.92289,7.694754 -3.93608,10.582167 -0.01,2.08123 1.6587,3.922302 3.54916,3.916926 3.87057,-0.01101 8.7774,-2.805984 15.2462,-8.684376 2.05334,-1.865923 4.26683,-3.734559 4.91888,-4.152524 1.36845,-0.877183 2.62272,-0.975317 3.48998,-0.273058 0.50386,0.408005 0.57167,0.644638 0.41857,1.460726 -0.24329,1.296849 -2.16035,4.112874 -5.61831,8.252898 -3.03091,3.628733 -5.16148,5.540072 -7.65989,6.871714 -4.42735,2.359751 -10.72875,3.47248 -14.48256,2.557393 z m -47.76578,-0.683277 c -1.42062,-0.22163 -5.00552,-1.342397 -6.96994,-2.179051 -1.39427,-0.593823 -3.68305,-2.69219 -4.32013,-3.960716 -1.10778,-2.205749 -0.89945,-4.235804 0.56078,-5.464504 1.47271,-1.239206 2.84967,-0.849685 5.56681,1.574769 2.73627,2.441531 6.89756,3.791372 12.57531,4.079185 2.73376,0.138577 2.89553,0.115912 4.06518,-0.569551 1.39932,-0.820052 2.03417,-1.837901 1.82589,-2.927424 -0.18752,-0.980989 -2.81045,-3.777574 -5.53465,-5.901098 -3.08196,-2.402395 -6.58795,-4.614794 -14.07461,-8.881545 C 231.46678,54.702226 228,51.575459 228,46.906745 c 0,-2.028135 -0.59641,-2.378094 -1.65891,-0.97341 -2.09196,2.765682 -12.73927,21.519779 -13.90883,24.498905 -1.1889,3.028411 -1.39003,3.364423 -2.29359,3.831669 -1.13908,0.589042 -3.78674,0.531925 -4.56526,-0.09849 -0.51671,-0.418405 -0.63645,-0.809734 -0.72449,-2.367829 -0.2445,-4.327113 1.29041,-7.168532 12.78327,-23.664259 10.2758,-14.748901 13.88352,-20.169417 20.76568,-31.200001 7.44788,-11.937303 9.45222,-14.912326 10.90778,-16.190325 0.81258,-0.713456 1.05828,-0.7887072 2.21291,-0.677762 1.45761,0.140058 2.61477,0.993681 2.61477,1.928878 0,1.094356 -1.49876,3.540311 -10.17961,16.612934 -4.81307,7.248064 -9.53163,14.473883 -10.48571,16.057375 -2.29824,3.814441 -2.32189,4.256987 -0.12479,2.335567 2.72751,-2.385272 10.09288,-6.55278 16.52345,-9.349365 4.68785,-2.038696 9.3427,-3.540334 14,-4.516348 3.6263,-0.759951 4.4609,-0.839637 8.93333,-0.852943 4.59966,-0.01369 5.04155,0.02851 6.53333,0.623787 1.00658,0.401663 2.0698,1.104591 2.86667,1.895238 1.12972,1.120892 1.2664,1.383428 1.26417,2.428202 -0.003,1.409182 -0.9616,3.206466 -2.80181,5.253229 -1.5445,1.717857 -2.39949,2.184867 -3.99998,2.184867 -1.29544,0 -2.17979,-0.339223 -2.72056,-1.043558 -0.38791,-0.505227 -0.44102,-2.747408 -0.0938,-3.958203 l 0.24805,-0.864906 -2.98138,0.0016 c -6.93755,0.0037 -13.0221,1.648299 -21.64805,5.851417 -6.6518,3.241186 -10.95784,6.408259 -12.92041,9.502903 -2.40315,3.789387 0.1741,6.321388 15.32041,15.051384 12.9619,7.470954 18.18248,11.427948 20.94873,15.878304 0.58858,0.9469 0.64752,1.309707 0.61229,3.769096 -0.0511,3.571118 -0.40592,4.301812 -2.98024,6.138098 -1.07391,0.766025 -2.39391,1.532525 -2.93334,1.703333 -1.16838,0.369966 -13.63696,0.568944 -15.67989,0.250226 z m -132.68868,-5.11887 c -1.59263,-0.582539 -1.14323,-1.944509 2.5321,-7.673942 1.26301,-1.968897 2.22992,-3.687349 2.14869,-3.818781 -0.0812,-0.131433 -0.91133,-0.603739 -1.84467,-1.04957 -1.75866,-0.840066 -3.26906,-2.263543 -4.84914,-4.570084 -0.79764,-1.164372 -0.91571,-1.240539 -1.46666,-0.94614 -1.11368,0.59509 -6.26595,5.952431 -7.35136,7.643954 -0.59275,0.923761 -1.38981,2.496272 -1.77124,3.494469 -0.92259,2.414379 -2.06687,4.170486 -3.04815,4.677924 -1.02764,0.531412 -3.806899,0.542969 -4.81814,0.02004 -3.742079,-1.935104 -1.922393,-6.856949 5.31595,-14.378458 4.39698,-4.568989 7.58689,-6.796301 11.15381,-7.787994 2.04216,-0.56777 3.60206,-0.343845 5.26145,0.755285 1.10325,0.730766 2.07134,1.809849 4.92515,5.489831 L 126,64.543658 128.53333,63.3397 c 1.78048,-0.846166 2.87408,-1.204316 3.67991,-1.205161 1.30254,-0.0014 2.57403,0.560934 2.97886,1.317359 0.44165,0.825248 0.31713,2.692997 -0.25761,3.863911 -0.53053,1.080856 -7.8717,9.932133 -10.48943,12.647156 -1.96535,2.0384 -3.4225,2.551059 -5.29952,1.864499 z m 36.40228,-4.197963 c -1.12121,-0.707016 -1.56763,-1.430805 -2.06759,-3.352192 -0.46598,-1.790799 -0.55097,-6.171978 -0.14788,-7.622958 0.42909,-1.544581 0.8844,-1.975561 2.08709,-1.975561 1.44187,0 2.04331,0.594851 3.25768,3.222019 0.55104,1.19211 1.13111,2.247342 1.28906,2.344959 0.76353,0.471888 4.48539,-4.199666 6.40498,-8.039323 2.54295,-5.086513 3.64436,-12.485986 2.32763,-15.637371 -0.34548,-0.82683 -0.52962,-0.969073 -1.25455,-0.969073 -0.71383,0 -1.21997,0.372979 -3.16641,2.333334 -3.79358,3.82071 -7.51504,9.046231 -14.43164,20.264329 -2.05804,3.337953 -4.27287,6.604942 -4.92185,7.259976 -1.13261,1.143172 -1.25286,1.19509 -2.99626,1.293601 -3.16275,0.178711 -4.57898,-0.875965 -4.16187,-3.099368 0.19348,-1.031335 19.7804,-33.789805 30.30252,-50.679951 3.90835,-6.273697 5.26405,-8.818476 5.26439,-9.881826 C 173.3338,11.033692 176.90992,8 179.33333,8 c 0.96924,0 2.5404,0.707347 3.4,1.530704 1.58752,1.520577 1.12238,2.543381 -5.42813,11.935963 -6.67736,9.574469 -10.9052,16.155615 -10.9052,16.97528 0,0.482019 0.28982,0.565548 3.04823,0.87854 2.87625,0.326363 5.35342,2.607211 6.44476,5.933984 0.41607,1.2683 0.50234,2.286949 0.48097,5.678864 -0.0233,3.695443 -0.11142,4.458424 -0.832,7.201926 -0.99955,3.80567 -2.10099,6.48208 -3.7936,9.218124 -2.71861,4.394549 -6.03896,7.682292 -9.70295,9.607661 -1.53637,0.80734 -2.24019,1.012717 -3.76737,1.099323 -1.54456,0.08759 -2.02936,0.01108 -2.73022,-0.430868 z m 184.71885,-0.457948 c -6.15645,-1.65112 -7.30465,-8.500974 -2.8664,-17.100245 2.72299,-5.275905 7.1894,-10.306636 10.55608,-11.889837 1.61434,-0.759153 2.00886,-0.834123 4.31032,-0.819096 1.93682,0.01264 2.88366,0.152954 4.02116,0.595883 2.91848,1.136424 4.74347,3.470989 4.35057,5.565336 -0.23999,1.279236 -2.15356,3.276408 -3.13926,3.276408 -0.93179,0 -2.12464,-0.606542 -3.63247,-1.84704 -0.66,-0.542986 -1.34648,-1.074436 -1.5255,-1.181001 -1.27618,-0.759645 -6.72971,5.427733 -8.93201,10.133942 -0.61871,1.322165 -0.83337,2.21779 -0.93589,3.904885 -0.11928,1.963036 -0.0728,2.264979 0.44954,2.922548 0.76997,0.969239 1.87793,0.957346 3.61457,-0.0388 2.99194,-1.716189 5.44779,-4.516057 7.47732,-8.524738 1.95523,-3.86191 3.67729,-5.272765 5.78895,-4.742772 1.22009,0.306222 3.03252,1.78339 4.52559,3.688442 1.82413,2.327479 2.86571,3.194538 5.07877,4.227804 2.13326,0.996012 8.56393,2.652739 11.05626,2.848415 l 1.93093,0.151601 0.37843,-0.905697 c 0.20813,-0.498133 0.57274,-2.310883 0.81025,-4.028333 0.23751,-1.71745 0.73558,-4.057126 1.10682,-5.199279 3.46083,-10.647468 14.31898,-18.212598 22.28747,-15.528208 2.12442,0.715666 4.1736,2.043886 5.24991,3.402847 1.82465,2.303809 5.37192,11.248058 5.37192,13.545008 0,0.912806 -0.15441,1.349028 -0.65454,1.849165 -1.60554,1.605534 -3.52235,0.296766 -6.22479,-4.250186 -1.88105,-3.164944 -4.40651,-6.473641 -5.57776,-7.307644 -0.42649,-0.30369 -1.09957,-0.633516 -1.49573,-0.732945 -1.53314,-0.384795 -5.4504,2.295519 -7.78836,5.329048 -2.52145,3.271611 -3.81795,7.040703 -4.3552,12.66108 -0.22803,2.38559 -0.37354,2.931949 -1.02976,3.866667 -1.99517,2.841893 -6.51125,3.441165 -15.2202,2.019679 -4.19848,-0.68528 -7.03467,-1.541625 -11.40461,-3.443451 l -3.66499,-1.595028 -2.5587,2.425358 c -5.80843,5.505747 -9.00155,7.159996 -13.75869,7.12792 -1.17333,-0.0079 -2.79334,-0.191392 -3.6,-0.407736 z m -154.3176,-2.09583 c -0.68486,-0.297852 -0.88237,-0.569024 -1.01204,-1.389563 -0.0886,-0.56072 -0.2457,-1.351889 -0.34908,-1.758153 L 184.4,71.189345 l -1.4148,0.955712 c -1.87005,1.263245 -3.24722,1.721612 -5.17257,1.721612 -1.39848,0 -1.67958,-0.09259 -2.36648,-0.779487 -1.61021,-1.610219 -1.0744,-2.703841 7.06521,-14.420513 10.12612,-14.576176 19.31319,-29.252615 27.62633,-44.133335 5.81967,-10.417359 7.96866,-13.462094 9.74067,-13.800836 0.95859,-0.183247 2.39698,0.38201 3.38831,1.331539 C 223.86661,2.638681 224,2.998523 224,4.042288 c 0,2.353271 -0.68886,3.547837 -12.04704,20.891046 -10.10094,15.423501 -15.02314,23.333334 -14.52005,23.333334 0.0817,0 1.19917,-0.677787 2.4833,-1.506193 3.3981,-2.192139 4.7372,-2.754792 6.5637,-2.757869 1.71022,-0.0029 2.62798,0.370585 3.70313,1.506922 1.88232,1.989455 1.68461,4.375076 -0.76997,9.290474 -1.47767,2.959105 -3.04261,5.336525 -5.79261,8.8 -2.64997,3.337502 -8.38617,9.217944 -10.00539,10.256997 -2.23388,1.433476 -5.85025,2.008399 -7.666,1.218724 z m 10.45072,-13.548349 c 2.96733,-3.068049 5.98775,-7.762057 5.38344,-8.366362 -0.40569,-0.405698 -3.43357,2.268025 -6.33488,5.593927 -2.54356,2.915801 -3.15723,3.96523 -2.66532,4.557943 0.6931,0.835143 1.43764,0.467585 3.61676,-1.785508 z M 147.27544,38.066668 c -0.6906,-0.752205 -2.084,-3.529146 -2.32132,-4.626244 -0.11005,-0.508719 0.0244,-1.635994 0.34982,-2.933333 0.29071,-1.1589 0.60976,-2.990314 0.709,-4.06981 0.14911,-1.622112 0.30863,-2.1062 0.91917,-2.789517 0.66594,-0.745319 0.91921,-0.836722 2.56998,-0.927489 1.68391,-0.09259 1.9177,-0.03772 2.90583,0.68197 0.59103,0.430463 1.36257,1.3255 1.71454,1.988971 l 0.63995,1.206311 -0.99471,5.167904 c -0.54709,2.842347 -1.05548,5.4857 -1.12977,5.874118 -0.16186,0.846328 -0.6764,1.018532 -3.05811,1.023478 -1.48018,0.0031 -1.83939,-0.08989 -2.30438,-0.596359 z"
       id="path2" />
    <path
       style="fill:#000000"
       id="path1" />
  </g>
</svg>
